<?xml version="1.0" encoding="UTF-8"?>
<svg width="700pt" height="700pt" version="1.1" viewBox="0 0 700 700" xmlns="http://www.w3.org/2000/svg">
 <g>
  <path d="m315.7 283.79c0 6.3477-5.1445 11.496-11.492 11.496-6.3477 0-11.496-5.1484-11.496-11.496 0-6.3477 5.1484-11.492 11.496-11.492 6.3477 0 11.492 5.1445 11.492 11.492"/>
  <path d="m407.29 283.79c0 6.3477-5.1484 11.496-11.496 11.496-6.3477 0-11.492-5.1484-11.492-11.496 0-6.3477 5.1445-11.492 11.492-11.492 6.3477 0 11.496 5.1445 11.496 11.492"/>
  <path d="m498.85 283.79c0 6.3477-5.1445 11.496-11.492 11.496-6.3477 0-11.496-5.1484-11.496-11.496 0-6.3477 5.1484-11.492 11.496-11.492 6.3477 0 11.492 5.1445 11.492 11.492"/>
  <path d="m224.14 283.79c0 6.3477-5.1484 11.496-11.496 11.496-6.3477 0-11.492-5.1484-11.492-11.496 0-6.3477 5.1445-11.492 11.492-11.492 6.3477 0 11.496 5.1445 11.496 11.492"/>
  <path d="m269.89 318.79c0 6.3477-5.1445 11.496-11.492 11.496-6.3477 0-11.496-5.1484-11.496-11.496 0-6.3477 5.1484-11.492 11.496-11.492 6.3477 0 11.492 5.1445 11.492 11.492"/>
  <path d="m361.49 318.79c0 6.3477-5.1445 11.496-11.492 11.496s-11.492-5.1484-11.492-11.496c0-6.3477 5.1445-11.492 11.492-11.492s11.492 5.1445 11.492 11.492"/>
  <path d="m453.07 318.79c0 6.3477-5.1445 11.496-11.492 11.496-6.3477 0-11.496-5.1484-11.496-11.496 0-6.3477 5.1484-11.492 11.496-11.492 6.3477 0 11.492 5.1445 11.492 11.492"/>
  <path d="m315.7 353.79c0 6.3477-5.1445 11.496-11.492 11.496-6.3477 0-11.496-5.1484-11.496-11.496 0-6.3477 5.1484-11.492 11.496-11.492 6.3477 0 11.492 5.1445 11.492 11.492"/>
  <path d="m407.29 353.79c0 6.3477-5.1484 11.496-11.496 11.496-6.3477 0-11.492-5.1484-11.492-11.496 0-6.3477 5.1445-11.492 11.492-11.492 6.3477 0 11.496 5.1445 11.496 11.492"/>
  <path d="m269.89 388.79c0 6.3477-5.1445 11.496-11.492 11.496-6.3477 0-11.496-5.1484-11.496-11.496 0-6.3477 5.1484-11.492 11.496-11.492 6.3477 0 11.492 5.1445 11.492 11.492"/>
  <path d="m361.49 388.79c0 6.3477-5.1445 11.496-11.492 11.496s-11.492-5.1484-11.492-11.496c0-6.3477 5.1445-11.492 11.492-11.492s11.492 5.1445 11.492 11.492"/>
  <path d="m453.07 388.79c0 6.3477-5.1445 11.496-11.492 11.496-6.3477 0-11.496-5.1484-11.496-11.496 0-6.3477 5.1484-11.492 11.496-11.492 6.3477 0 11.492 5.1445 11.492 11.492"/>
  <path d="m315.7 423.79c0 6.3477-5.1445 11.496-11.492 11.496-6.3477 0-11.496-5.1484-11.496-11.496 0-6.3477 5.1484-11.492 11.496-11.492 6.3477 0 11.492 5.1445 11.492 11.492"/>
  <path d="m407.29 423.79c0 6.3477-5.1484 11.496-11.496 11.496-6.3477 0-11.492-5.1484-11.492-11.496 0-6.3477 5.1445-11.492 11.492-11.492 6.3477 0 11.496 5.1445 11.496 11.492"/>
  <path d="m570.02 231.31c-4.2422-44.086-33.895-76.117-84.238-93.562 0.32031-4.0898-1.6094-8.0625-5.3047-10.066-30.547-16.645-61.57-25.09-92.23-25.09-11.762 0-21.168 1.3164-28.293 2.7578-1.75-20.02-9.1719-56.938-39.762-71.82-5.2227-2.5742-11.508-0.35156-14.043 4.8438-2.5352 5.2227-0.35156 11.492 4.8594 14.027 20.273 9.8711 26.137 36.566 27.816 52.711-7-1.3438-15.988-2.5195-27.105-2.5195-30.645 0-61.684 8.4414-92.23 25.09-3.6836 2.0039-5.6289 5.9766-5.3047 10.066-50.316 17.473-80.012 49.477-84.238 93.562-11.508 119.8 87.332 255.18 215.85 295.59 1.3711 0.43359 2.7734 0.64453 4.1992 0.64453 1.4297 0 2.8281-0.21094 4.1992-0.64453 128.52-40.418 227.36-175.8 215.82-295.59zm-258.27-107.7c21.281 0 34.301 4.9297 34.383 4.957 2.4492 0.96484 5.2227 0.98047 7.6992 0.015625 0.125-0.042969 13.133-4.9688 34.426-4.9688 14.797 0 29.75 2.2539 44.742 6.7344-13.453 2.0703-27.105 5.1953-35.883 9.8828-3.1641 1.6797-5.2344 4.8438-5.5312 8.4141-0.29297 3.5547 1.2461 7.0156 4.0742 9.1992 0.29297 0.23828 22.289 17.277 38.164 40.727-19.445-10.852-43.344-22.203-58.27-22.203-0.19531 0-1.5664 0.042969-1.7773 0.054688-5.3203 0.30859-9.5625 4.5625-9.8711 9.8828-0.027344 0.42188-2.1562 35.152-13.902 65.141-11.746-29.988-13.875-64.734-13.902-65.141-0.30859-5.3203-4.5508-9.5742-9.8711-9.8828-0.21094-0.015625-1.582-0.054688-1.7773-0.054688-14.926 0-38.82 11.355-58.27 22.203 15.875-23.438 37.855-40.488 38.164-40.727 2.8281-2.1719 4.3828-5.6406 4.0742-9.1992-0.29297-3.5547-2.3672-6.7188-5.5312-8.4141-8.793-4.6758-22.441-7.8125-35.883-9.8828 14.992-4.4844 29.941-6.7383 44.742-6.7383zm38.246 375.23c-112.81-37.773-202.2-160.43-192.16-264.86 5.4023-56.293 66.961-75.012 116.98-80.891 0.8125 0.16797 1.6641 0.30859 2.4492 0.48828-15.191 14.449-38.012 40.066-45.57 69.371-1.0781 4.1992 0.53125 8.6523 4.0742 11.172 3.5273 2.5078 8.2305 2.6328 11.887 0.22266 18.34-12.098 49.797-30.199 68.516-35.477 2.1406 18.367 8.3164 55.047 24.891 81.828 1.918 3.0938 5.293 4.9688 8.9336 4.9688s7.0156-1.875 8.9336-4.9688c16.617-26.84 22.766-63.59 24.891-81.93 18.355 5.1797 50.062 23.406 68.516 35.59 3.6406 2.4062 8.3594 2.2969 11.887-0.22266 3.543-2.5195 5.1523-6.9727 4.0742-11.172-7.5586-29.301-30.379-54.906-45.57-69.371 0.95312-0.21094 2.0039-0.39062 2.9961-0.60156 52.738 5.9922 111.11 25.27 116.44 81.004 10.039 104.41-79.352 227.07-192.16 264.84z"/>
 </g>
</svg>
